<mxfile host="app.diagrams.net" agent="Mozilla/5.0 (Windows NT 10.0; Win64; x64) AppleWebKit/537.36 (KHTML, like Gecko) Chrome/135.0.0.0 Safari/537.36" version="28.2.7">
  <diagram name="Página-1" id="FQKlMmm-cV7zJ6cAvByr">
    <mxGraphModel grid="1" page="1" gridSize="10" guides="1" tooltips="1" connect="1" arrows="1" fold="1" pageScale="1" pageWidth="827" pageHeight="1169" math="0" shadow="0">
      <root>
        <mxCell id="0" />
        <mxCell id="1" parent="0" />
        <mxCell id="3_57kwMa1kTUX3S-VBHT-1" style="edgeStyle=orthogonalEdgeStyle;rounded=0;orthogonalLoop=1;jettySize=auto;html=1;entryX=0.5;entryY=0;entryDx=0;entryDy=0;" edge="1" parent="1" target="3_57kwMa1kTUX3S-VBHT-2">
          <mxGeometry relative="1" as="geometry">
            <mxPoint x="1104" y="350" as="sourcePoint" />
          </mxGeometry>
        </mxCell>
        <mxCell id="3_57kwMa1kTUX3S-VBHT-2" value="PANTALLA INICIO" style="rounded=0;whiteSpace=wrap;html=1;" vertex="1" parent="1">
          <mxGeometry x="1044" y="380" width="120" height="60" as="geometry" />
        </mxCell>
        <mxCell id="3_57kwMa1kTUX3S-VBHT-3" value="¿Pulsa inicio?" style="rhombus;whiteSpace=wrap;html=1;rounded=0;" vertex="1" parent="1">
          <mxGeometry x="1064" y="510" width="80" height="80" as="geometry" />
        </mxCell>
        <mxCell id="3_57kwMa1kTUX3S-VBHT-4" value="¿Pulsa Ajustes?" style="rhombus;whiteSpace=wrap;html=1;rounded=0;" vertex="1" parent="1">
          <mxGeometry x="1220" y="510" width="80" height="80" as="geometry" />
        </mxCell>
        <mxCell id="3_57kwMa1kTUX3S-VBHT-5" value="" style="endArrow=classic;html=1;rounded=0;exitX=0.5;exitY=1;exitDx=0;exitDy=0;" edge="1" parent="1" source="3_57kwMa1kTUX3S-VBHT-2">
          <mxGeometry width="50" height="50" relative="1" as="geometry">
            <mxPoint x="1120" y="520" as="sourcePoint" />
            <mxPoint x="1104" y="510" as="targetPoint" />
          </mxGeometry>
        </mxCell>
        <mxCell id="3_57kwMa1kTUX3S-VBHT-6" value="" style="endArrow=classic;html=1;rounded=0;exitX=1;exitY=0.5;exitDx=0;exitDy=0;" edge="1" parent="1" source="3_57kwMa1kTUX3S-VBHT-3">
          <mxGeometry width="50" height="50" relative="1" as="geometry">
            <mxPoint x="980" y="480" as="sourcePoint" />
            <mxPoint x="1220" y="550" as="targetPoint" />
          </mxGeometry>
        </mxCell>
        <mxCell id="3_57kwMa1kTUX3S-VBHT-7" value="" style="endArrow=classic;html=1;rounded=0;exitX=1;exitY=0.5;exitDx=0;exitDy=0;entryX=1;entryY=0.5;entryDx=0;entryDy=0;" edge="1" parent="1" source="3_57kwMa1kTUX3S-VBHT-4" target="3_57kwMa1kTUX3S-VBHT-2">
          <mxGeometry width="50" height="50" relative="1" as="geometry">
            <mxPoint x="1330" y="550" as="sourcePoint" />
            <mxPoint x="1380" y="550" as="targetPoint" />
            <Array as="points">
              <mxPoint x="1380" y="550" />
              <mxPoint x="1380" y="410" />
            </Array>
          </mxGeometry>
        </mxCell>
        <mxCell id="3_57kwMa1kTUX3S-VBHT-8" value="" style="endArrow=classic;html=1;rounded=0;exitX=0.5;exitY=1;exitDx=0;exitDy=0;" edge="1" parent="1" source="3_57kwMa1kTUX3S-VBHT-3">
          <mxGeometry width="50" height="50" relative="1" as="geometry">
            <mxPoint x="1120" y="650" as="sourcePoint" />
            <mxPoint x="1104" y="660" as="targetPoint" />
          </mxGeometry>
        </mxCell>
        <mxCell id="3_57kwMa1kTUX3S-VBHT-9" value="" style="edgeStyle=orthogonalEdgeStyle;rounded=0;orthogonalLoop=1;jettySize=auto;html=1;entryX=0.5;entryY=0;entryDx=0;entryDy=0;" edge="1" parent="1" source="3_57kwMa1kTUX3S-VBHT-10" target="3_57kwMa1kTUX3S-VBHT-82">
          <mxGeometry relative="1" as="geometry">
            <mxPoint x="280" y="800" as="targetPoint" />
          </mxGeometry>
        </mxCell>
        <mxCell id="3_57kwMa1kTUX3S-VBHT-10" value="INICIA EL JUEGO" style="rounded=0;whiteSpace=wrap;html=1;" vertex="1" parent="1">
          <mxGeometry x="1056" y="660" width="96" height="50" as="geometry" />
        </mxCell>
        <mxCell id="3_57kwMa1kTUX3S-VBHT-11" value="" style="edgeStyle=orthogonalEdgeStyle;rounded=0;orthogonalLoop=1;jettySize=auto;html=1;" edge="1" parent="1" source="3_57kwMa1kTUX3S-VBHT-12" target="3_57kwMa1kTUX3S-VBHT-23">
          <mxGeometry relative="1" as="geometry" />
        </mxCell>
        <mxCell id="3_57kwMa1kTUX3S-VBHT-12" value="ABRE AJUSTES" style="rounded=0;whiteSpace=wrap;html=1;" vertex="1" parent="1">
          <mxGeometry x="1212" y="660" width="96" height="50" as="geometry" />
        </mxCell>
        <mxCell id="3_57kwMa1kTUX3S-VBHT-13" value="" style="endArrow=classic;html=1;rounded=0;exitX=0.5;exitY=1;exitDx=0;exitDy=0;entryX=0.5;entryY=0;entryDx=0;entryDy=0;" edge="1" parent="1" source="3_57kwMa1kTUX3S-VBHT-4" target="3_57kwMa1kTUX3S-VBHT-12">
          <mxGeometry width="50" height="50" relative="1" as="geometry">
            <mxPoint x="1100" y="600" as="sourcePoint" />
            <mxPoint x="1100" y="670" as="targetPoint" />
          </mxGeometry>
        </mxCell>
        <mxCell id="3_57kwMa1kTUX3S-VBHT-14" value="NO" style="text;html=1;align=center;verticalAlign=middle;whiteSpace=wrap;rounded=0;" vertex="1" parent="1">
          <mxGeometry x="1290" y="520" width="60" height="30" as="geometry" />
        </mxCell>
        <mxCell id="3_57kwMa1kTUX3S-VBHT-15" value="NO" style="text;html=1;align=center;verticalAlign=middle;whiteSpace=wrap;rounded=0;" vertex="1" parent="1">
          <mxGeometry x="1144" y="520" width="60" height="30" as="geometry" />
        </mxCell>
        <mxCell id="3_57kwMa1kTUX3S-VBHT-16" value="SI" style="text;html=1;align=center;verticalAlign=middle;whiteSpace=wrap;rounded=0;" vertex="1" parent="1">
          <mxGeometry x="1056" y="580" width="60" height="30" as="geometry" />
        </mxCell>
        <mxCell id="3_57kwMa1kTUX3S-VBHT-17" value="SI" style="text;html=1;align=center;verticalAlign=middle;whiteSpace=wrap;rounded=0;" vertex="1" parent="1">
          <mxGeometry x="1204" y="580" width="60" height="30" as="geometry" />
        </mxCell>
        <mxCell id="3_57kwMa1kTUX3S-VBHT-21" value="" style="edgeStyle=orthogonalEdgeStyle;rounded=0;orthogonalLoop=1;jettySize=auto;html=1;" edge="1" parent="1" source="3_57kwMa1kTUX3S-VBHT-23" target="3_57kwMa1kTUX3S-VBHT-26">
          <mxGeometry relative="1" as="geometry" />
        </mxCell>
        <mxCell id="3_57kwMa1kTUX3S-VBHT-22" value="" style="edgeStyle=orthogonalEdgeStyle;rounded=0;orthogonalLoop=1;jettySize=auto;html=1;" edge="1" parent="1" source="3_57kwMa1kTUX3S-VBHT-23" target="3_57kwMa1kTUX3S-VBHT-29">
          <mxGeometry relative="1" as="geometry" />
        </mxCell>
        <mxCell id="3_57kwMa1kTUX3S-VBHT-23" value="¿Pulsa Idioma?" style="rhombus;whiteSpace=wrap;html=1;rounded=0;" vertex="1" parent="1">
          <mxGeometry x="1220" y="775" width="80" height="80" as="geometry" />
        </mxCell>
        <mxCell id="3_57kwMa1kTUX3S-VBHT-24" value="SE QUEDA EN LA PANTALLA DE INICIO" style="text;html=1;align=center;verticalAlign=middle;whiteSpace=wrap;rounded=0;" vertex="1" parent="1">
          <mxGeometry x="1390" y="460" width="60" height="30" as="geometry" />
        </mxCell>
        <mxCell id="3_57kwMa1kTUX3S-VBHT-25" value="" style="edgeStyle=orthogonalEdgeStyle;rounded=0;orthogonalLoop=1;jettySize=auto;html=1;" edge="1" parent="1" source="3_57kwMa1kTUX3S-VBHT-26" target="3_57kwMa1kTUX3S-VBHT-44">
          <mxGeometry relative="1" as="geometry" />
        </mxCell>
        <mxCell id="3_57kwMa1kTUX3S-VBHT-26" value="ABRE APARTADO IDIOMA" style="whiteSpace=wrap;html=1;rounded=0;" vertex="1" parent="1">
          <mxGeometry x="1200" y="945" width="120" height="60" as="geometry" />
        </mxCell>
        <mxCell id="3_57kwMa1kTUX3S-VBHT-27" value="" style="edgeStyle=orthogonalEdgeStyle;rounded=0;orthogonalLoop=1;jettySize=auto;html=1;" edge="1" parent="1" source="3_57kwMa1kTUX3S-VBHT-29" target="3_57kwMa1kTUX3S-VBHT-32">
          <mxGeometry relative="1" as="geometry" />
        </mxCell>
        <mxCell id="3_57kwMa1kTUX3S-VBHT-28" value="" style="edgeStyle=orthogonalEdgeStyle;rounded=0;orthogonalLoop=1;jettySize=auto;html=1;" edge="1" parent="1" source="3_57kwMa1kTUX3S-VBHT-29" target="3_57kwMa1kTUX3S-VBHT-36">
          <mxGeometry relative="1" as="geometry" />
        </mxCell>
        <mxCell id="3_57kwMa1kTUX3S-VBHT-29" value="¿Pulsa gráficos?" style="rhombus;whiteSpace=wrap;html=1;rounded=0;" vertex="1" parent="1">
          <mxGeometry x="1380" y="775" width="80" height="80" as="geometry" />
        </mxCell>
        <mxCell id="3_57kwMa1kTUX3S-VBHT-30" value="" style="edgeStyle=orthogonalEdgeStyle;rounded=0;orthogonalLoop=1;jettySize=auto;html=1;" edge="1" parent="1" source="3_57kwMa1kTUX3S-VBHT-32" target="3_57kwMa1kTUX3S-VBHT-38">
          <mxGeometry relative="1" as="geometry" />
        </mxCell>
        <mxCell id="3_57kwMa1kTUX3S-VBHT-31" value="" style="edgeStyle=orthogonalEdgeStyle;rounded=0;orthogonalLoop=1;jettySize=auto;html=1;" edge="1" parent="1" source="3_57kwMa1kTUX3S-VBHT-32" target="3_57kwMa1kTUX3S-VBHT-40">
          <mxGeometry relative="1" as="geometry" />
        </mxCell>
        <mxCell id="3_57kwMa1kTUX3S-VBHT-32" value="¿Pulsa la X?" style="rhombus;whiteSpace=wrap;html=1;rounded=0;" vertex="1" parent="1">
          <mxGeometry x="1600" y="775" width="80" height="80" as="geometry" />
        </mxCell>
        <mxCell id="3_57kwMa1kTUX3S-VBHT-33" value="NO" style="text;html=1;align=center;verticalAlign=middle;whiteSpace=wrap;rounded=0;" vertex="1" parent="1">
          <mxGeometry x="1308" y="785" width="60" height="30" as="geometry" />
        </mxCell>
        <mxCell id="3_57kwMa1kTUX3S-VBHT-34" value="NO" style="text;html=1;align=center;verticalAlign=middle;whiteSpace=wrap;rounded=0;" vertex="1" parent="1">
          <mxGeometry x="1480" y="785" width="60" height="30" as="geometry" />
        </mxCell>
        <mxCell id="3_57kwMa1kTUX3S-VBHT-35" style="edgeStyle=orthogonalEdgeStyle;rounded=0;orthogonalLoop=1;jettySize=auto;html=1;entryX=0.5;entryY=0;entryDx=0;entryDy=0;" edge="1" parent="1" source="3_57kwMa1kTUX3S-VBHT-36" target="3_57kwMa1kTUX3S-VBHT-57">
          <mxGeometry relative="1" as="geometry" />
        </mxCell>
        <mxCell id="3_57kwMa1kTUX3S-VBHT-36" value="ABRE APARTADO GRÁFICOS" style="whiteSpace=wrap;html=1;rounded=0;" vertex="1" parent="1">
          <mxGeometry x="1360" y="945" width="120" height="60" as="geometry" />
        </mxCell>
        <mxCell id="3_57kwMa1kTUX3S-VBHT-37" style="edgeStyle=orthogonalEdgeStyle;rounded=0;orthogonalLoop=1;jettySize=auto;html=1;entryX=0;entryY=0.5;entryDx=0;entryDy=0;" edge="1" parent="1" source="3_57kwMa1kTUX3S-VBHT-38" target="3_57kwMa1kTUX3S-VBHT-2">
          <mxGeometry relative="1" as="geometry">
            <Array as="points">
              <mxPoint x="1860" y="975" />
              <mxPoint x="1860" y="1490" />
              <mxPoint x="870" y="1490" />
              <mxPoint x="870" y="410" />
            </Array>
          </mxGeometry>
        </mxCell>
        <mxCell id="3_57kwMa1kTUX3S-VBHT-38" value="VUELVE A LA PANTALLA DE INICIO" style="whiteSpace=wrap;html=1;rounded=0;" vertex="1" parent="1">
          <mxGeometry x="1580" y="945" width="120" height="60" as="geometry" />
        </mxCell>
        <mxCell id="3_57kwMa1kTUX3S-VBHT-39" style="edgeStyle=orthogonalEdgeStyle;rounded=0;orthogonalLoop=1;jettySize=auto;html=1;entryX=0.5;entryY=0;entryDx=0;entryDy=0;exitX=0.5;exitY=0;exitDx=0;exitDy=0;" edge="1" parent="1" source="3_57kwMa1kTUX3S-VBHT-40" target="3_57kwMa1kTUX3S-VBHT-32">
          <mxGeometry relative="1" as="geometry">
            <Array as="points">
              <mxPoint x="1740" y="755" />
              <mxPoint x="1580" y="755" />
            </Array>
          </mxGeometry>
        </mxCell>
        <mxCell id="3_57kwMa1kTUX3S-VBHT-40" value="ESTÁ EN EL APARTADO ACTUAL (DEFAULT DESBLOQUEOS)" style="whiteSpace=wrap;html=1;rounded=0;" vertex="1" parent="1">
          <mxGeometry x="1740" y="785" width="120" height="60" as="geometry" />
        </mxCell>
        <mxCell id="3_57kwMa1kTUX3S-VBHT-41" value="NO" style="text;html=1;align=center;verticalAlign=middle;whiteSpace=wrap;rounded=0;" vertex="1" parent="1">
          <mxGeometry x="1673" y="785" width="60" height="30" as="geometry" />
        </mxCell>
        <mxCell id="3_57kwMa1kTUX3S-VBHT-42" value="" style="edgeStyle=orthogonalEdgeStyle;rounded=0;orthogonalLoop=1;jettySize=auto;html=1;" edge="1" parent="1" source="3_57kwMa1kTUX3S-VBHT-44" target="3_57kwMa1kTUX3S-VBHT-45">
          <mxGeometry relative="1" as="geometry" />
        </mxCell>
        <mxCell id="3_57kwMa1kTUX3S-VBHT-43" value="" style="edgeStyle=orthogonalEdgeStyle;rounded=0;orthogonalLoop=1;jettySize=auto;html=1;" edge="1" parent="1" source="3_57kwMa1kTUX3S-VBHT-44" target="3_57kwMa1kTUX3S-VBHT-48">
          <mxGeometry relative="1" as="geometry" />
        </mxCell>
        <mxCell id="3_57kwMa1kTUX3S-VBHT-44" value="¿Cambia el idioma a inglés?" style="rhombus;whiteSpace=wrap;html=1;rounded=0;" vertex="1" parent="1">
          <mxGeometry x="894" y="1090" width="120" height="80" as="geometry" />
        </mxCell>
        <mxCell id="3_57kwMa1kTUX3S-VBHT-45" value="IDIOMA INGLÉS" style="whiteSpace=wrap;html=1;rounded=0;" vertex="1" parent="1">
          <mxGeometry x="894" y="1205" width="120" height="60" as="geometry" />
        </mxCell>
        <mxCell id="3_57kwMa1kTUX3S-VBHT-46" value="" style="edgeStyle=orthogonalEdgeStyle;rounded=0;orthogonalLoop=1;jettySize=auto;html=1;" edge="1" parent="1" source="3_57kwMa1kTUX3S-VBHT-48" target="3_57kwMa1kTUX3S-VBHT-49">
          <mxGeometry relative="1" as="geometry" />
        </mxCell>
        <mxCell id="3_57kwMa1kTUX3S-VBHT-47" value="" style="edgeStyle=orthogonalEdgeStyle;rounded=0;orthogonalLoop=1;jettySize=auto;html=1;" edge="1" parent="1" source="3_57kwMa1kTUX3S-VBHT-48" target="3_57kwMa1kTUX3S-VBHT-50">
          <mxGeometry relative="1" as="geometry" />
        </mxCell>
        <mxCell id="3_57kwMa1kTUX3S-VBHT-48" value="¿Cambia el idioma a asturiano?" style="rhombus;whiteSpace=wrap;html=1;rounded=0;" vertex="1" parent="1">
          <mxGeometry x="1044" y="1090" width="120" height="80" as="geometry" />
        </mxCell>
        <mxCell id="3_57kwMa1kTUX3S-VBHT-49" value="IDIOMA ASTURIANO" style="whiteSpace=wrap;html=1;rounded=0;" vertex="1" parent="1">
          <mxGeometry x="1044" y="1205" width="120" height="60" as="geometry" />
        </mxCell>
        <mxCell id="3_57kwMa1kTUX3S-VBHT-50" value="IDIOMA CASTELLANO" style="whiteSpace=wrap;html=1;rounded=0;" vertex="1" parent="1">
          <mxGeometry x="1207" y="1100" width="120" height="60" as="geometry" />
        </mxCell>
        <mxCell id="3_57kwMa1kTUX3S-VBHT-51" value="NO" style="text;html=1;align=center;verticalAlign=middle;whiteSpace=wrap;rounded=0;" vertex="1" parent="1">
          <mxGeometry x="1004" y="1100" width="60" height="30" as="geometry" />
        </mxCell>
        <mxCell id="3_57kwMa1kTUX3S-VBHT-52" value="NO" style="text;html=1;align=center;verticalAlign=middle;whiteSpace=wrap;rounded=0;" vertex="1" parent="1">
          <mxGeometry x="1152" y="1100" width="60" height="30" as="geometry" />
        </mxCell>
        <mxCell id="3_57kwMa1kTUX3S-VBHT-53" value="SI" style="text;html=1;align=center;verticalAlign=middle;whiteSpace=wrap;rounded=0;" vertex="1" parent="1">
          <mxGeometry x="941" y="1160" width="60" height="30" as="geometry" />
        </mxCell>
        <mxCell id="3_57kwMa1kTUX3S-VBHT-54" value="SI" style="text;html=1;align=center;verticalAlign=middle;whiteSpace=wrap;rounded=0;" vertex="1" parent="1">
          <mxGeometry x="1092" y="1160" width="60" height="30" as="geometry" />
        </mxCell>
        <mxCell id="3_57kwMa1kTUX3S-VBHT-55" value="" style="edgeStyle=orthogonalEdgeStyle;rounded=0;orthogonalLoop=1;jettySize=auto;html=1;" edge="1" parent="1" source="3_57kwMa1kTUX3S-VBHT-57" target="3_57kwMa1kTUX3S-VBHT-58">
          <mxGeometry relative="1" as="geometry" />
        </mxCell>
        <mxCell id="3_57kwMa1kTUX3S-VBHT-56" value="" style="edgeStyle=orthogonalEdgeStyle;rounded=0;orthogonalLoop=1;jettySize=auto;html=1;" edge="1" parent="1" source="3_57kwMa1kTUX3S-VBHT-57" target="3_57kwMa1kTUX3S-VBHT-61">
          <mxGeometry relative="1" as="geometry" />
        </mxCell>
        <mxCell id="3_57kwMa1kTUX3S-VBHT-57" value="¿Cambia la calidad a alta?" style="rhombus;whiteSpace=wrap;html=1;rounded=0;" vertex="1" parent="1">
          <mxGeometry x="1360" y="1100" width="120" height="80" as="geometry" />
        </mxCell>
        <mxCell id="3_57kwMa1kTUX3S-VBHT-58" value="CALIDAD ALTA" style="whiteSpace=wrap;html=1;rounded=0;" vertex="1" parent="1">
          <mxGeometry x="1360" y="1215" width="120" height="60" as="geometry" />
        </mxCell>
        <mxCell id="3_57kwMa1kTUX3S-VBHT-59" value="" style="edgeStyle=orthogonalEdgeStyle;rounded=0;orthogonalLoop=1;jettySize=auto;html=1;" edge="1" parent="1" source="3_57kwMa1kTUX3S-VBHT-61" target="3_57kwMa1kTUX3S-VBHT-62">
          <mxGeometry relative="1" as="geometry" />
        </mxCell>
        <mxCell id="3_57kwMa1kTUX3S-VBHT-60" value="" style="edgeStyle=orthogonalEdgeStyle;rounded=0;orthogonalLoop=1;jettySize=auto;html=1;" edge="1" parent="1" source="3_57kwMa1kTUX3S-VBHT-61" target="3_57kwMa1kTUX3S-VBHT-63">
          <mxGeometry relative="1" as="geometry" />
        </mxCell>
        <mxCell id="3_57kwMa1kTUX3S-VBHT-61" value="¿Cambia la calidad a baja?" style="rhombus;whiteSpace=wrap;html=1;rounded=0;" vertex="1" parent="1">
          <mxGeometry x="1510" y="1100" width="120" height="80" as="geometry" />
        </mxCell>
        <mxCell id="3_57kwMa1kTUX3S-VBHT-62" value="CALIDAD BAJA" style="whiteSpace=wrap;html=1;rounded=0;" vertex="1" parent="1">
          <mxGeometry x="1510" y="1215" width="120" height="60" as="geometry" />
        </mxCell>
        <mxCell id="3_57kwMa1kTUX3S-VBHT-63" value="CALIDAD MEDIA" style="whiteSpace=wrap;html=1;rounded=0;" vertex="1" parent="1">
          <mxGeometry x="1673" y="1110" width="120" height="60" as="geometry" />
        </mxCell>
        <mxCell id="3_57kwMa1kTUX3S-VBHT-64" value="SI" style="text;html=1;align=center;verticalAlign=middle;whiteSpace=wrap;rounded=0;" vertex="1" parent="1">
          <mxGeometry x="1397" y="1170" width="60" height="30" as="geometry" />
        </mxCell>
        <mxCell id="3_57kwMa1kTUX3S-VBHT-65" value="SI" style="text;html=1;align=center;verticalAlign=middle;whiteSpace=wrap;rounded=0;" vertex="1" parent="1">
          <mxGeometry x="1548" y="1170" width="60" height="30" as="geometry" />
        </mxCell>
        <mxCell id="3_57kwMa1kTUX3S-VBHT-66" value="NO" style="text;html=1;align=center;verticalAlign=middle;whiteSpace=wrap;rounded=0;" vertex="1" parent="1">
          <mxGeometry x="1470" y="1100" width="60" height="30" as="geometry" />
        </mxCell>
        <mxCell id="3_57kwMa1kTUX3S-VBHT-67" value="NO" style="text;html=1;align=center;verticalAlign=middle;whiteSpace=wrap;rounded=0;" vertex="1" parent="1">
          <mxGeometry x="1618" y="1100" width="60" height="30" as="geometry" />
        </mxCell>
        <mxCell id="3_57kwMa1kTUX3S-VBHT-68" value="SI" style="text;html=1;align=center;verticalAlign=middle;whiteSpace=wrap;rounded=0;" vertex="1" parent="1">
          <mxGeometry x="1248" y="870" width="60" height="30" as="geometry" />
        </mxCell>
        <mxCell id="3_57kwMa1kTUX3S-VBHT-69" value="SI" style="text;html=1;align=center;verticalAlign=middle;whiteSpace=wrap;rounded=0;" vertex="1" parent="1">
          <mxGeometry x="1410" y="870" width="60" height="30" as="geometry" />
        </mxCell>
        <mxCell id="3_57kwMa1kTUX3S-VBHT-70" value="SI" style="text;html=1;align=center;verticalAlign=middle;whiteSpace=wrap;rounded=0;" vertex="1" parent="1">
          <mxGeometry x="1570" y="870" width="60" height="30" as="geometry" />
        </mxCell>
        <mxCell id="3_57kwMa1kTUX3S-VBHT-80" value="Parejas en el Horizonte" style="rounded=0;whiteSpace=wrap;html=1;fontSize=28;" vertex="1" parent="1">
          <mxGeometry x="1001" y="250" width="206" height="100" as="geometry" />
        </mxCell>
        <mxCell id="3_57kwMa1kTUX3S-VBHT-81" style="edgeStyle=orthogonalEdgeStyle;rounded=0;orthogonalLoop=1;jettySize=auto;html=1;exitX=0.5;exitY=1;exitDx=0;exitDy=0;entryX=0.5;entryY=0;entryDx=0;entryDy=0;" edge="1" parent="1" source="3_57kwMa1kTUX3S-VBHT-90" target="3_57kwMa1kTUX3S-VBHT-135">
          <mxGeometry relative="1" as="geometry">
            <mxPoint x="-365" y="1110" as="targetPoint" />
          </mxGeometry>
        </mxCell>
        <mxCell id="3_57kwMa1kTUX3S-VBHT-82" value="INICIA CONTADOR DE x segundos" style="rounded=0;whiteSpace=wrap;html=1;" vertex="1" parent="1">
          <mxGeometry x="45" y="800" width="120" height="60" as="geometry" />
        </mxCell>
        <mxCell id="3_57kwMa1kTUX3S-VBHT-88" value="" style="edgeStyle=orthogonalEdgeStyle;rounded=0;orthogonalLoop=1;jettySize=auto;html=1;entryX=0.5;entryY=0;entryDx=0;entryDy=0;" edge="1" parent="1" source="3_57kwMa1kTUX3S-VBHT-82" target="3_57kwMa1kTUX3S-VBHT-90">
          <mxGeometry relative="1" as="geometry">
            <mxPoint x="105" y="860" as="sourcePoint" />
            <mxPoint x="105" y="1290" as="targetPoint" />
          </mxGeometry>
        </mxCell>
        <mxCell id="3_57kwMa1kTUX3S-VBHT-89" value="" style="edgeStyle=orthogonalEdgeStyle;rounded=0;orthogonalLoop=1;jettySize=auto;html=1;" edge="1" parent="1" source="3_57kwMa1kTUX3S-VBHT-90" target="3_57kwMa1kTUX3S-VBHT-94">
          <mxGeometry relative="1" as="geometry" />
        </mxCell>
        <mxCell id="3_57kwMa1kTUX3S-VBHT-90" value="¿Hay tiempo restante?" style="rhombus;whiteSpace=wrap;html=1;rounded=0;" vertex="1" parent="1">
          <mxGeometry x="-430" y="910" width="130" height="80" as="geometry" />
        </mxCell>
        <mxCell id="3_57kwMa1kTUX3S-VBHT-111" value="" style="edgeStyle=orthogonalEdgeStyle;rounded=0;orthogonalLoop=1;jettySize=auto;html=1;" edge="1" parent="1" source="3_57kwMa1kTUX3S-VBHT-94" target="3_57kwMa1kTUX3S-VBHT-110">
          <mxGeometry relative="1" as="geometry" />
        </mxCell>
        <mxCell id="3_57kwMa1kTUX3S-VBHT-94" value="SE TERMINA EL JUEGO&amp;nbsp;" style="whiteSpace=wrap;html=1;rounded=0;" vertex="1" parent="1">
          <mxGeometry x="-260" y="920" width="120" height="60" as="geometry" />
        </mxCell>
        <mxCell id="3_57kwMa1kTUX3S-VBHT-120" value="" style="edgeStyle=orthogonalEdgeStyle;rounded=0;orthogonalLoop=1;jettySize=auto;html=1;" edge="1" parent="1" source="3_57kwMa1kTUX3S-VBHT-96" target="3_57kwMa1kTUX3S-VBHT-119">
          <mxGeometry relative="1" as="geometry" />
        </mxCell>
        <mxCell id="3_57kwMa1kTUX3S-VBHT-96" value="Continua" style="rounded=0;whiteSpace=wrap;html=1;" vertex="1" parent="1">
          <mxGeometry x="-425" y="1230" width="120" height="60" as="geometry" />
        </mxCell>
        <mxCell id="3_57kwMa1kTUX3S-VBHT-97" value="&lt;font style=&quot;font-size: 22px;&quot;&gt;FLUJO JUEGO&lt;/font&gt;" style="shape=process;whiteSpace=wrap;html=1;backgroundOutline=1;" vertex="1" parent="1">
          <mxGeometry x="425" y="760" width="260" height="120" as="geometry" />
        </mxCell>
        <mxCell id="3_57kwMa1kTUX3S-VBHT-98" style="edgeStyle=orthogonalEdgeStyle;rounded=0;orthogonalLoop=1;jettySize=auto;html=1;entryX=1;entryY=0.5;entryDx=0;entryDy=0;exitX=0.5;exitY=1;exitDx=0;exitDy=0;" edge="1" parent="1" source="3_57kwMa1kTUX3S-VBHT-100" target="3_57kwMa1kTUX3S-VBHT-82">
          <mxGeometry relative="1" as="geometry">
            <Array as="points">
              <mxPoint x="620" y="1230" />
              <mxPoint x="200" y="1230" />
              <mxPoint x="200" y="830" />
            </Array>
          </mxGeometry>
        </mxCell>
        <mxCell id="3_57kwMa1kTUX3S-VBHT-99" value="" style="edgeStyle=orthogonalEdgeStyle;rounded=0;orthogonalLoop=1;jettySize=auto;html=1;" edge="1" parent="1" source="3_57kwMa1kTUX3S-VBHT-100" target="3_57kwMa1kTUX3S-VBHT-105">
          <mxGeometry relative="1" as="geometry" />
        </mxCell>
        <mxCell id="3_57kwMa1kTUX3S-VBHT-100" value="¿Pulsa Volver a jugar?" style="rhombus;whiteSpace=wrap;html=1;rounded=0;" vertex="1" parent="1">
          <mxGeometry x="580" y="910" width="80" height="80" as="geometry" />
        </mxCell>
        <mxCell id="3_57kwMa1kTUX3S-VBHT-101" value="NO" style="text;html=1;align=center;verticalAlign=middle;whiteSpace=wrap;rounded=0;" vertex="1" parent="1">
          <mxGeometry x="647" y="917.5" width="60" height="30" as="geometry" />
        </mxCell>
        <mxCell id="3_57kwMa1kTUX3S-VBHT-102" value="SI" style="text;html=1;align=center;verticalAlign=middle;whiteSpace=wrap;rounded=0;" vertex="1" parent="1">
          <mxGeometry x="564" y="1002.5" width="60" height="30" as="geometry" />
        </mxCell>
        <mxCell id="3_57kwMa1kTUX3S-VBHT-103" style="edgeStyle=orthogonalEdgeStyle;rounded=0;orthogonalLoop=1;jettySize=auto;html=1;entryX=0;entryY=0.5;entryDx=0;entryDy=0;exitX=0.5;exitY=1;exitDx=0;exitDy=0;" edge="1" parent="1" source="3_57kwMa1kTUX3S-VBHT-105" target="3_57kwMa1kTUX3S-VBHT-2">
          <mxGeometry relative="1" as="geometry">
            <Array as="points">
              <mxPoint x="740" y="1080" />
              <mxPoint x="930" y="1080" />
              <mxPoint x="930" y="410" />
            </Array>
          </mxGeometry>
        </mxCell>
        <mxCell id="3_57kwMa1kTUX3S-VBHT-104" value="" style="edgeStyle=orthogonalEdgeStyle;rounded=0;orthogonalLoop=1;jettySize=auto;html=1;" edge="1" parent="1" source="3_57kwMa1kTUX3S-VBHT-105" target="3_57kwMa1kTUX3S-VBHT-106">
          <mxGeometry relative="1" as="geometry" />
        </mxCell>
        <mxCell id="3_57kwMa1kTUX3S-VBHT-105" value="¿Pulsa Inicio?" style="rhombus;whiteSpace=wrap;html=1;rounded=0;" vertex="1" parent="1">
          <mxGeometry x="700" y="910" width="80" height="80" as="geometry" />
        </mxCell>
        <mxCell id="3_57kwMa1kTUX3S-VBHT-106" value="SE QUEDA EN LA PANTALLA FINAL" style="whiteSpace=wrap;html=1;rounded=0;" vertex="1" parent="1">
          <mxGeometry x="800" y="920" width="120" height="60" as="geometry" />
        </mxCell>
        <mxCell id="3_57kwMa1kTUX3S-VBHT-107" value="NO" style="text;html=1;align=center;verticalAlign=middle;whiteSpace=wrap;rounded=0;" vertex="1" parent="1">
          <mxGeometry x="750" y="910" width="60" height="30" as="geometry" />
        </mxCell>
        <mxCell id="3_57kwMa1kTUX3S-VBHT-108" value="SI" style="text;html=1;align=center;verticalAlign=middle;whiteSpace=wrap;rounded=0;" vertex="1" parent="1">
          <mxGeometry x="740" y="985" width="60" height="30" as="geometry" />
        </mxCell>
        <mxCell id="3_57kwMa1kTUX3S-VBHT-113" value="" style="edgeStyle=orthogonalEdgeStyle;rounded=0;orthogonalLoop=1;jettySize=auto;html=1;" edge="1" parent="1" source="3_57kwMa1kTUX3S-VBHT-110" target="3_57kwMa1kTUX3S-VBHT-112">
          <mxGeometry relative="1" as="geometry" />
        </mxCell>
        <mxCell id="3_57kwMa1kTUX3S-VBHT-115" value="" style="edgeStyle=orthogonalEdgeStyle;rounded=0;orthogonalLoop=1;jettySize=auto;html=1;" edge="1" parent="1" source="3_57kwMa1kTUX3S-VBHT-110" target="3_57kwMa1kTUX3S-VBHT-114">
          <mxGeometry relative="1" as="geometry" />
        </mxCell>
        <mxCell id="3_57kwMa1kTUX3S-VBHT-110" value="¿Resolvió todas las parejas?" style="rhombus;whiteSpace=wrap;html=1;rounded=0;" vertex="1" parent="1">
          <mxGeometry x="-90" y="910" width="80" height="80" as="geometry" />
        </mxCell>
        <mxCell id="3_57kwMa1kTUX3S-VBHT-116" style="edgeStyle=orthogonalEdgeStyle;rounded=0;orthogonalLoop=1;jettySize=auto;html=1;entryX=0;entryY=0.5;entryDx=0;entryDy=0;" edge="1" parent="1" source="3_57kwMa1kTUX3S-VBHT-112" target="3_57kwMa1kTUX3S-VBHT-100">
          <mxGeometry relative="1" as="geometry" />
        </mxCell>
        <mxCell id="3_57kwMa1kTUX3S-VBHT-112" value="&quot;HAS PERDIDO&quot;" style="whiteSpace=wrap;html=1;rounded=0;" vertex="1" parent="1">
          <mxGeometry x="20" y="920" width="120" height="60" as="geometry" />
        </mxCell>
        <mxCell id="3_57kwMa1kTUX3S-VBHT-117" style="edgeStyle=orthogonalEdgeStyle;rounded=0;orthogonalLoop=1;jettySize=auto;html=1;entryX=0;entryY=0.5;entryDx=0;entryDy=0;" edge="1" parent="1" source="3_57kwMa1kTUX3S-VBHT-114" target="3_57kwMa1kTUX3S-VBHT-100">
          <mxGeometry relative="1" as="geometry" />
        </mxCell>
        <mxCell id="3_57kwMa1kTUX3S-VBHT-114" value="&quot;HAS GANADO&quot;" style="whiteSpace=wrap;html=1;rounded=0;" vertex="1" parent="1">
          <mxGeometry x="-110" y="1030" width="120" height="60" as="geometry" />
        </mxCell>
        <mxCell id="3_57kwMa1kTUX3S-VBHT-122" value="" style="edgeStyle=orthogonalEdgeStyle;rounded=0;orthogonalLoop=1;jettySize=auto;html=1;" edge="1" parent="1" source="3_57kwMa1kTUX3S-VBHT-119" target="3_57kwMa1kTUX3S-VBHT-121">
          <mxGeometry relative="1" as="geometry" />
        </mxCell>
        <mxCell id="3_57kwMa1kTUX3S-VBHT-119" value="Voltea una pareja" style="whiteSpace=wrap;html=1;rounded=0;" vertex="1" parent="1">
          <mxGeometry x="-425" y="1370" width="120" height="60" as="geometry" />
        </mxCell>
        <mxCell id="3_57kwMa1kTUX3S-VBHT-124" value="" style="edgeStyle=orthogonalEdgeStyle;rounded=0;orthogonalLoop=1;jettySize=auto;html=1;" edge="1" parent="1" source="3_57kwMa1kTUX3S-VBHT-121" target="3_57kwMa1kTUX3S-VBHT-123">
          <mxGeometry relative="1" as="geometry" />
        </mxCell>
        <mxCell id="3_57kwMa1kTUX3S-VBHT-126" value="" style="edgeStyle=orthogonalEdgeStyle;rounded=0;orthogonalLoop=1;jettySize=auto;html=1;" edge="1" parent="1" source="3_57kwMa1kTUX3S-VBHT-121" target="3_57kwMa1kTUX3S-VBHT-125">
          <mxGeometry relative="1" as="geometry" />
        </mxCell>
        <mxCell id="3_57kwMa1kTUX3S-VBHT-121" value="¿La pareja coincide?" style="rhombus;whiteSpace=wrap;html=1;rounded=0;" vertex="1" parent="1">
          <mxGeometry x="-405" y="1500" width="80" height="80" as="geometry" />
        </mxCell>
        <mxCell id="3_57kwMa1kTUX3S-VBHT-134" style="edgeStyle=orthogonalEdgeStyle;rounded=0;orthogonalLoop=1;jettySize=auto;html=1;entryX=1;entryY=0.5;entryDx=0;entryDy=0;" edge="1" parent="1" source="3_57kwMa1kTUX3S-VBHT-123" target="3_57kwMa1kTUX3S-VBHT-119">
          <mxGeometry relative="1" as="geometry">
            <Array as="points">
              <mxPoint x="-90" y="1540" />
              <mxPoint x="-90" y="1400" />
            </Array>
          </mxGeometry>
        </mxCell>
        <mxCell id="3_57kwMa1kTUX3S-VBHT-123" value="Da un fallo / resta tiempo" style="whiteSpace=wrap;html=1;rounded=0;" vertex="1" parent="1">
          <mxGeometry x="-265" y="1510" width="120" height="60" as="geometry" />
        </mxCell>
        <mxCell id="3_57kwMa1kTUX3S-VBHT-133" style="edgeStyle=orthogonalEdgeStyle;rounded=0;orthogonalLoop=1;jettySize=auto;html=1;entryX=0;entryY=0.5;entryDx=0;entryDy=0;" edge="1" parent="1" source="3_57kwMa1kTUX3S-VBHT-125" target="3_57kwMa1kTUX3S-VBHT-119">
          <mxGeometry relative="1" as="geometry">
            <Array as="points">
              <mxPoint x="-445" y="1710" />
              <mxPoint x="-445" y="1400" />
            </Array>
          </mxGeometry>
        </mxCell>
        <mxCell id="3_57kwMa1kTUX3S-VBHT-125" value="Añade un acierto y la deja volteada" style="rounded=0;whiteSpace=wrap;html=1;" vertex="1" parent="1">
          <mxGeometry x="-425" y="1670" width="120" height="60" as="geometry" />
        </mxCell>
        <mxCell id="3_57kwMa1kTUX3S-VBHT-127" value="SI" style="text;html=1;align=center;verticalAlign=middle;whiteSpace=wrap;rounded=0;" vertex="1" parent="1">
          <mxGeometry x="-60" y="990" width="60" height="30" as="geometry" />
        </mxCell>
        <mxCell id="3_57kwMa1kTUX3S-VBHT-128" value="SI" style="text;html=1;align=center;verticalAlign=middle;whiteSpace=wrap;rounded=0;" vertex="1" parent="1">
          <mxGeometry x="-370" y="1005" width="60" height="30" as="geometry" />
        </mxCell>
        <mxCell id="3_57kwMa1kTUX3S-VBHT-129" value="SI" style="text;html=1;align=center;verticalAlign=middle;whiteSpace=wrap;rounded=0;" vertex="1" parent="1">
          <mxGeometry x="-380" y="1590" width="60" height="30" as="geometry" />
        </mxCell>
        <mxCell id="3_57kwMa1kTUX3S-VBHT-130" value="NO" style="text;html=1;align=center;verticalAlign=middle;whiteSpace=wrap;rounded=0;" vertex="1" parent="1">
          <mxGeometry x="-30" y="920" width="60" height="30" as="geometry" />
        </mxCell>
        <mxCell id="3_57kwMa1kTUX3S-VBHT-131" value="NO" style="text;html=1;align=center;verticalAlign=middle;whiteSpace=wrap;rounded=0;" vertex="1" parent="1">
          <mxGeometry x="-310" y="915" width="60" height="30" as="geometry" />
        </mxCell>
        <mxCell id="3_57kwMa1kTUX3S-VBHT-132" value="NO" style="text;html=1;align=center;verticalAlign=middle;whiteSpace=wrap;rounded=0;" vertex="1" parent="1">
          <mxGeometry x="-330" y="1500" width="60" height="30" as="geometry" />
        </mxCell>
        <mxCell id="3_57kwMa1kTUX3S-VBHT-136" style="edgeStyle=orthogonalEdgeStyle;rounded=0;orthogonalLoop=1;jettySize=auto;html=1;entryX=0.5;entryY=0;entryDx=0;entryDy=0;" edge="1" parent="1" source="3_57kwMa1kTUX3S-VBHT-135" target="3_57kwMa1kTUX3S-VBHT-96">
          <mxGeometry relative="1" as="geometry" />
        </mxCell>
        <mxCell id="3_57kwMa1kTUX3S-VBHT-138" style="edgeStyle=orthogonalEdgeStyle;rounded=0;orthogonalLoop=1;jettySize=auto;html=1;entryX=0.5;entryY=1;entryDx=0;entryDy=0;" edge="1" parent="1" source="3_57kwMa1kTUX3S-VBHT-135" target="3_57kwMa1kTUX3S-VBHT-94">
          <mxGeometry relative="1" as="geometry" />
        </mxCell>
        <mxCell id="3_57kwMa1kTUX3S-VBHT-135" value="¿Quedan parejas que voltear?" style="rhombus;whiteSpace=wrap;html=1;" vertex="1" parent="1">
          <mxGeometry x="-405" y="1120" width="80" height="80" as="geometry" />
        </mxCell>
        <mxCell id="3_57kwMa1kTUX3S-VBHT-137" value="SI" style="text;html=1;align=center;verticalAlign=middle;whiteSpace=wrap;rounded=0;" vertex="1" parent="1">
          <mxGeometry x="-380" y="1190" width="60" height="30" as="geometry" />
        </mxCell>
        <mxCell id="3_57kwMa1kTUX3S-VBHT-139" value="NO" style="text;html=1;align=center;verticalAlign=middle;whiteSpace=wrap;rounded=0;" vertex="1" parent="1">
          <mxGeometry x="-325" y="1130" width="60" height="30" as="geometry" />
        </mxCell>
      </root>
    </mxGraphModel>
  </diagram>
</mxfile>
